# xmcd CD database file
#
# Track frame offsets:
#	150
#	22857
#	37870
#	56940
#	72840
#	90665
#	110137
#	129555
#	144480
#	158490
#
# Disc length: 2262 seconds
#
# Revision: 3
# Processed by: cddbd v1.5.2PL0 Copyright (c) Steve Scherf et al.
# Submitted via: CDex 1.51
#
DISCID=8008d40a
DTITLE=Patrick Norman - Passion Vaudou
DYEAR=2002
DGENRE=Country
TTITLE0=Elle s'en va
TTITLE1=Oui l'amour
TTITLE2=Vaudou queen
TTITLE3=La lumiere de l'amour
TTITLE4=Cette fille un peu folle
TTITLE5=He perdido la luna
TTITLE6=Ne m'en veux pas
TTITLE7=On repart
TTITLE8=Les rois de bourbon street
TTITLE9=Madame Rose
EXTD=YEAR: 2002
EXTT0=
EXTT1=
EXTT2=
EXTT3=
EXTT4=
EXTT5=
EXTT6=
EXTT7=
EXTT8=
EXTT9=
PLAYORDER=
